<?xml version="1.0" encoding="UTF-8" standalone="no"?><!DOCTYPE svg PUBLIC "-//W3C//DTD SVG 1.1//EN" "http://www.w3.org/Graphics/SVG/1.1/DTD/svg11.dtd"><svg width="100%" height="100%" viewBox="0 0 381 409" version="1.1" xmlns="http://www.w3.org/2000/svg" xmlns:xlink="http://www.w3.org/1999/xlink" xml:space="preserve" xmlns:serif="http://www.serif.com/" style="fill-rule:evenodd;clip-rule:evenodd;stroke-linejoin:round;stroke-miterlimit:2;"><g><path d="M88.75,135c0,0 12.917,38.75 36.667,82.917c3.75,-11.25 7.083,-22.5 9.166,-34.167c-2.5,-11.667 -4.166,-24.583 -4.583,-37.917l0,-4.166c0,-7.084 1.25,-22.084 12.5,-25.417l-13.333,-15.833c-0,-0 -1.25,1.666 -4.167,2.916c-0.417,0.417 -0.833,0.417 -1.25,0.417c-0.417,0.417 -1.25,0.417 -1.667,0.833c-0.416,0 -1.25,0.417 -1.666,0.417c-0.417,0 -0.834,0.417 -1.667,0.417c-0.833,-0 -2.083,0.416 -2.917,0.416l-4.583,0c-0.417,0 -1.25,0 -1.667,-0.416l-0.833,2.5c3.75,0.833 4.583,7.5 4.583,7.5c0,7.916 -7.5,7.916 -7.5,7.916l-2.5,0c-3.75,-0.833 -5.833,-4.166 -5.833,-7.916l0,-1.667c1.25,-6.25 6.25,-7.917 6.25,-7.917l-0.417,-2.916c-0.833,-0.417 -1.666,-0.834 -2.5,-1.25c-10.833,-7.917 -33.75,-22.917 -44.583,-21.25c0,-0 0.833,3.333 0.833,8.75c0,3.333 0,7.916 -0.833,13.333c0.417,-0.417 22.917,3.75 32.5,32.5Z" style="fill:#0369a1;fill-rule:nonzero;"/><path d="M200.417,298.75c12.5,-12.917 24.166,-27.917 34.583,-43.333c1.25,-1.667 2.083,-3.334 2.917,-4.584c5,-7.5 9.583,-15.416 13.75,-22.916l1.25,-2.5c-0,-0 -0,-0.417 0.416,-0.417c0,-0.417 0.417,-0.833 0.417,-1.25l0.833,-1.25c0.417,-0.833 0.834,-1.667 1.25,-2.5c24.167,-44.583 37.917,-85 37.917,-85c9.583,-28.75 32.083,-32.917 32.083,-32.917c-0.833,-5.416 -0.833,-9.583 -0.833,-12.916c0,-5.834 0.833,-8.75 0.833,-8.75c-10.833,-1.667 -33.75,13.333 -44.583,21.25c-0.833,0.416 -1.667,0.833 -2.5,1.25l-0.417,2.916c0,0 5,1.667 6.25,7.917l0,1.667c0,3.75 -2.083,7.083 -5.833,7.916l-2.5,0c0,0 -7.5,0 -7.5,-7.916c0,-0 0.833,-6.667 4.583,-7.5l-0.833,-2.5c-0.417,-0 -1.25,-0 -1.667,0.416l-4.583,0c-0.833,0 -2.083,0 -2.917,-0.416c-0.416,-0 -0.833,-0 -1.666,-0.417c-0.417,-0 -1.25,-0.417 -1.667,-0.417c-0.417,0 -1.25,-0.416 -1.667,-0.833c-0.416,-0 -0.833,-0.417 -1.25,-0.417c-2.916,-1.666 -4.166,-2.916 -4.166,-2.916l-12.917,16.25c11.25,3.333 12.5,18.333 12.5,25.416l-0,4.167c-0.417,15 -2.5,29.167 -5.833,42.5c-0.834,2.917 -1.25,5.833 -2.084,8.333c-3.333,12.084 -7.5,22.917 -12.5,32.917c-0.833,2.083 -1.666,3.75 -2.916,5.833c-11.667,23.334 -25.834,41.25 -38.334,54.167c-12.916,-13.333 -27.916,-32.5 -39.583,-56.667c-2.083,7.084 -3.75,14.167 -5.417,20.417c10.834,16.25 22.917,32.083 35.834,45.417c-8.334,7.916 -15,12.916 -17.5,14.583c-2.5,1.667 -7.917,5 -14.167,7.083l-0,9.584c-0,-0 25.417,5.416 40.833,34.583l0,0.417c15,-29.584 40.834,-35 40.834,-35l-0,-9.584c-6.25,-2.083 -11.667,-5.416 -14.167,-7.083c-2.083,-2.083 -8.75,-6.667 -17.083,-15Zm12.916,25.417c-16.25,9.583 -21.25,20.416 -22.083,22.083l-0,0.417c-0,-0 -0,-0.417 -0.417,-1.25c-1.666,-3.334 -7.083,-12.917 -21.25,-21.25c7.5,-4.584 15,-10.417 22.084,-16.667c6.666,6.667 13.75,12.083 21.666,16.667Z" style="fill:#0369a1;fill-rule:nonzero;"/><path d="M327.083,242.5c-2.916,-7.917 -8.333,-14.167 -15,-19.583c-10.833,-8.334 -12.5,-12.917 -12.5,-12.917c-7.083,-12.917 3.75,-15 3.75,-15c-0.416,-0.833 -0.833,-1.25 -1.25,-2.083c0,-0 0,-0.417 -0.416,-0.417c-0.417,-0.417 -0.834,-0.833 -1.25,-1.25l-0.417,0c-0.417,-0.417 -0.833,-0.417 -1.25,-0.833l-0.417,-0c-0.416,-0 -0.833,-0.417 -1.25,-0.417l-4.166,0c-0.417,0 -1.25,0.417 -1.667,0.833c-4.583,2.084 -6.667,7.084 -7.083,11.667c-0.417,3.333 -1.25,5 -1.25,5c-3.334,5 -2.084,8.75 -0,11.667c1.666,2.083 4.583,3.75 7.5,4.166c6.25,1.25 6.666,5.417 6.666,5.417c-1.25,-0.417 -2.083,-0.417 -2.916,-0.833l-0.834,-0c-0.833,-0 -1.25,-0.417 -2.083,-0.417l-0.417,-0c-0.833,-0 -1.25,-0.417 -1.666,-0.417l-2.084,0c-0.833,0 -1.666,0 -2.916,0.417c-5.417,0.833 -8.75,5.833 -7.5,10.833c1.666,5.834 7.083,6.667 7.083,6.667c-6.667,5.833 -6.25,10.833 -4.167,14.583c1.667,3.75 5.417,5.834 9.584,6.25l2.5,0c0.416,0 0.833,0 1.25,-0.416c0.416,-0 0.416,-0 0.833,-0.417c0.417,-0 0.417,-0.417 0.833,-0.417c0.417,0 0.417,-0.416 0.834,-0.416c0.416,-0 0.416,-0.417 0.833,-0.417l1.667,-1.667c-0,0 -0,-0.416 0.416,-0.416l0,-0.417c0,-0.417 0.417,-0.417 0.417,-0.417c-7.083,-3.333 -5.833,-10.833 -5.833,-10.833c0.416,-0.833 0.416,-1.667 0.833,-2.5c0,-0.417 0.417,-0.417 0.417,-0.833c0.416,-0.417 0.416,-0.834 0.833,-1.25l0.417,-0.417c0.416,-0.417 0.833,-0.417 1.25,-0.833l0.416,-0.417c0.417,-0.417 0.834,-0.417 1.25,-0.417l0.417,0c0.417,0 1.25,-0.416 1.667,-0.416l3.75,-0c0.833,-0 1.25,-0 2.083,0.416l1.667,0c0.833,0 1.25,0.417 1.666,0.834c0.417,-0 0.834,0.416 1.25,0.416c0.417,0.417 0.834,0.834 1.667,0.834c0.417,-0 0.417,0.416 0.833,0.416c0.417,0.417 0.834,0.834 1.25,1.667l0.417,0.417c3.333,4.583 3.75,10.416 1.25,15.833c-0.417,1.25 -1.25,2.5 -1.667,3.333c0,0.417 -0.416,0.417 -0.416,0.834c-0.417,0.833 -1.25,2.083 -1.667,2.5c-0.417,0.833 -1.25,1.25 -2.083,2.083l-0.417,0.417c-0.833,0.416 -1.25,1.25 -2.083,1.666l-0.417,0c-0.833,0.417 -1.25,0.834 -2.083,1.25c-0,0 -0.417,0 -0.417,0.417c-0.833,0.417 -1.667,0.417 -2.083,0.833l-0.417,0c-0.833,0 -1.25,0.417 -2.083,0.417l-6.25,-0c-0.834,-0 -2.084,-0.417 -2.917,-0.417c-7.5,-1.25 -14.167,-5.833 -18.333,-11.666c-7.5,-10 -13.334,-21.667 -18.334,-34.167c-5,8.75 -10.416,17.5 -15.833,26.25c6.25,25 9.167,41.25 9.167,41.25c6.25,26.25 2.5,33.333 2.5,33.333c-0.417,0.834 -0.834,1.667 -1.25,2.084l-0.417,0.416c-0.417,0.417 -0.417,0.834 -0.833,1.25l-0.417,0.417c-0.417,0.417 -0.833,0.417 -0.833,0.833l-0.417,0.417c-0,-0.417 -0.417,-0 -0.833,-0l-0.417,0.417c-0.417,0.416 -0.833,0.416 -1.25,0.416l-0.417,0c-0.416,0 -1.25,0.417 -1.666,0.417l-10,-0l-0,5.417c-0,0.416 -0,0.833 0.416,0.833l0,0.417c0,0.416 0.417,0.416 0.417,0.833c-0,-0 -0,0.417 0.417,0.417c-0,0.416 0.416,0.416 0.416,0.833c0,0.417 0.417,0.417 0.417,0.417c-0,0.416 0.417,0.416 0.417,0.833l0.416,0.417c0,0.416 0.417,0.416 0.417,0.833l0.417,0.417c0.416,0.416 0.416,0.416 0.833,0.416c0.417,0 0.417,0.417 0.833,0.417c0.417,-0 0.417,0.417 0.834,0.417c0.416,-0 0.416,0.416 0.833,0.416c0.417,0 0.833,0.417 0.833,0.417c0.417,-0 0.417,-0 0.834,0.417l4.583,-0c15.417,-1.25 15.417,-14.584 15.417,-14.584c0.833,0.417 1.666,0.834 2.5,1.25l0.416,0c0.834,0.417 1.25,0.417 2.084,0.417l2.5,-0c0.833,-0 1.666,-0 2.5,-0.417l0.416,0c0.417,0 1.25,-0.416 1.667,-0.833l0.417,-0.417c0.416,-0.416 0.833,-0.833 1.25,-0.833l0.416,-0.417c0.417,-0.416 0.834,-1.25 1.25,-1.666c1.667,-3.334 2.084,-6.667 1.667,-10c-0.417,-17.084 -10.833,-37.5 -10.833,-37.5c5.416,2.083 10,13.333 10,13.333c4.166,8.75 15.416,10.833 15.416,10.833c-0.833,-2.5 0,-3.333 0,-3.333c0.834,0.417 1.25,0.833 2.084,1.25c0.416,0 0.416,0.417 0.833,0.417c0.417,0.416 1.25,0.416 1.667,0.833c0.416,0 0.416,0 0.833,0.417c0.833,0.416 1.25,0.416 2.083,0.416l4.167,0c1.25,0 2.5,-0.416 3.333,-0.833l0.417,0c0.417,0 0.833,-0.417 1.25,-0.417l0.417,0c0.833,-0.416 1.666,-0.833 2.083,-1.25l0.417,-0.416c-4.584,-6.667 -2.084,-10.834 -2.084,-10.834c0.417,-8.75 -10.833,-12.916 -10.833,-12.916l7.917,-0c0.416,-0 0.833,-0 1.666,-0.417c0.834,0 1.25,-0.417 2.084,-0.417c0.416,0 0.833,-0.416 1.25,-0.416c0.416,-0 1.25,-0.417 1.666,-0.417c0.417,0 0.834,-0.417 1.25,-0.417c0.417,-0.416 0.834,-0.416 1.25,-0.833c0.417,-0.417 0.834,-0.417 1.25,-0.833c0.417,-0.417 0.834,-0.417 1.25,-0.834c0.417,-0.416 0.834,-0.416 0.834,-0.833c0.416,-0.417 0.833,-0.417 1.25,-0.833c0.416,-0.417 2.083,-2.084 2.5,-2.5c0.416,-0.417 0.416,-0.834 0.833,-0.834c0,-0.416 0.417,-0.416 0.417,-0.833c0.416,-0.417 0.416,-0.833 0.833,-0.833c0,-0.417 0.417,-0.417 0.417,-0.834c-0,-0.416 0.416,-0.416 0.416,-0.833c0,-0.417 0.417,-0.417 0.417,-0.833c0,-0.417 0.417,-0.417 0.417,-0.834c-0,-0.416 0.416,-0.416 0.416,-0.833c0,-0.417 0,-0.417 0.417,-0.417c0,-0.416 0,-0.416 0.417,-0.833l-0,-0.833c-0,-0.417 0.416,-0.834 0.416,-0.834c2.5,-9.583 1.25,-17.916 -1.25,-24.583Z" style="fill:#0369a1;fill-rule:nonzero;"/><path d="M147.5,338.75c-0.417,0 -0.417,0 -0.833,0.417l-8.334,-0c-0.416,-0 -1.25,-0.417 -1.666,-0.417l-0.417,0c-0.417,0 -0.833,-0.417 -1.25,-0.417l-0.417,-0.416c-0.416,-0 -0.833,-0.417 -0.833,-0.834c-0.417,0 -0.417,-0.416 -0.417,-0.416c-0.416,-0.417 -1.25,-1.25 -1.25,-1.25c-0.416,-0.417 -0.416,-0.834 -0.833,-1.25c-0,-0.417 -0.417,-0.417 -0.417,-0.834c-0.416,-0.833 -0.833,-1.25 -0.833,-2.083c-0,0 -3.333,-7.5 2.5,-33.333c-0,-0 2.917,-17.084 9.583,-43.334c0.417,-1.666 0.834,-3.75 1.25,-5.416c1.667,-6.25 3.75,-13.334 5.834,-20.834l-0,-0.833c0.416,-0.833 0.833,-2.917 1.666,-6.25c0.417,-0.833 1.25,-1.667 1.667,-2.5c-0,-0.417 0.417,-0.417 0.417,-0.833c0.416,-0.834 0.833,-1.25 1.25,-1.667c0.416,-0.417 0.416,-0.417 0.833,-0.833c0.417,-0.417 0.833,-0.834 1.25,-1.667c0.417,-0.417 0.833,-0.417 0.833,-0.833c0.417,-0.417 0.834,-0.834 1.25,-1.25c0.417,-0.417 0.834,-0.417 1.25,-0.834c0.417,-0.416 0.834,-0.833 1.667,-0.833c0.417,-0.417 0.833,-0.417 1.25,-0.417c0.417,-0.416 1.25,-0.416 1.667,-0.833c0.416,0 0.833,-0.417 1.25,-0.417c0.416,0 1.25,-0.416 1.666,-0.416l4.167,-0c-0,-0 15.417,5 10.833,20l0,0.416c0,0.417 -1.25,2.5 -1.666,3.334l-0,0.416c-0.417,0.417 -1.25,1.25 -1.667,1.667c-0.417,0.417 -0.833,0.833 -1.667,1.25c-0.416,0.417 -1.25,0.833 -2.083,0.833l-0.417,0c-0.833,0 -1.666,0.417 -2.5,0.417l-2.916,0c-0.834,0 -1.667,-0.417 -2.917,-0.833c-0,-0 -0.417,-0 -0.417,-0.417l-0.416,-0l-0.417,0.417c-0,-0 -0,0.416 -0.417,0.833l0,5.833c0,0.834 0.417,1.667 0.834,2.5l-0,0.417c-0,0.417 0.416,0.417 0.416,0.833c0,0 0,0.417 0.417,0.417c-0,0.417 0.417,0.417 0.417,0.833c-0,0 -0,0.417 0.416,0.417c0,0.417 0.417,0.417 0.417,0.417l0.417,0.416c0.416,0 0.416,0.417 0.833,0.417c-0,0 0.417,0 0.417,0.417c0.416,-0 0.833,0.416 1.25,0.416l0.416,0c0.417,0 1.25,0.417 1.667,0.417l4.167,0c0.833,0 1.666,-0.417 2.916,-0.833c0,-0 -5,13.75 10,19.583c15,-5.417 10,-19.583 10,-19.583c0.834,0.416 2.084,0.416 2.917,0.833l4.167,0c0.416,0 1.25,0 1.666,-0.417l0.417,0c0.417,0 0.833,-0.416 1.25,-0.416c-0,-0 0.417,-0 0.417,-0.417c0.416,0 0.416,-0.417 0.833,-0.417l1.25,-1.25c-0,-0.416 0.417,-0.416 0.417,-0.833c-0,0 -0,-0.417 0.416,-0.417c0,-0.416 0.417,-0.416 0.417,-0.833l-0,-0.417c-0,-0.416 0.417,-0.833 0.417,-1.25l-0,-7.083c-0,-0 -0,-0.417 -0.417,-0.417l-0.833,0c-0.834,0.417 -2.084,0.417 -2.917,0.834l-2.917,-0c-0.833,-0 -1.666,-0 -2.5,-0.417l-0.416,-0c-0.834,-0.417 -1.25,-0.417 -2.084,-0.833c-0.416,-0.417 -1.25,-0.834 -1.666,-1.25c-0,-0 -1.667,-1.667 -2.084,-2.084c-0.416,-0.416 -0.416,-0.833 -0.833,-1.25c-0,-0.416 -0.417,-0.833 -0.417,-1.25l0,-0.416c0,-0.417 0,-0.417 -0.416,-0.834l-0,-0.416c-4.584,-15 10.833,-20 10.833,-20l4.167,-0c0.416,-0 1.25,-0 1.666,0.416c0.417,0 0.834,0.417 1.25,0.417c0.417,0 1.25,0.417 1.667,0.833c0.417,0 0.833,0.417 1.25,0.834c0.417,0.416 0.833,0.416 1.667,0.833c0.416,0.417 0.833,0.417 1.25,0.833c0.416,0.417 0.833,0.834 1.25,1.25c0.416,0.417 0.833,0.417 0.833,0.834c0.417,0.416 0.833,0.833 1.25,1.25c0.417,0.416 0.417,0.833 0.833,0.833c0.417,0.417 0.834,1.25 1.25,1.667c0.417,0.416 0.417,0.833 0.834,0.833c0.416,0.833 0.833,1.667 1.666,2.083c0,0 0,0.417 0.417,0.417c0.417,0.833 0.417,2.083 0.833,2.917c4.584,-10.834 8.75,-22.5 12.084,-35.417c-10.417,-45.833 -10.834,-91.25 -10.834,-105.417l0,-4.583l29.584,0l-0,-8.75c-0,0 -11.667,-1.25 -14.167,-12.083l-22.917,-0c0,-0 -8.75,-14.167 -33.75,-14.167c-25,0 -33.75,14.167 -33.75,14.167l-22.5,-0c-2.5,10.833 -14.166,12.083 -14.166,12.083l-0,8.75l29.583,0l0,4.583c0,6.25 0,18.334 -0.833,33.334l-0,2.916c-1.25,18.334 -3.75,41.25 -8.75,64.584c-0.834,2.916 -1.25,6.25 -2.084,9.166c-2.5,10 -5.416,20 -8.75,30c-0.416,1.667 -1.25,3.334 -2.083,5c-4.583,12.084 -10.417,23.334 -17.083,33.334c-5,7.083 -12.084,12.5 -20.417,14.583c-0.833,0.417 -2.083,0.417 -2.917,0.417l-6.25,-0c-0.833,-0 -1.25,-0.417 -2.083,-0.417l-0.417,0c-0.833,-0.417 -1.666,-0.417 -2.083,-0.833c0,-0 -0.417,-0 -0.417,-0.417c-0.833,-0.417 -1.25,-0.833 -2.083,-1.25c0,0 -0.417,0 -0.417,-0.417c-0.833,-0.416 -1.25,-0.833 -2.083,-1.666l-0.417,-0.417c-0.416,-0.417 -1.25,-1.25 -1.666,-2.083l-0.417,-0.417c-0.417,-0.833 -1.25,-1.667 -1.667,-2.5c0,-0.417 -0.416,-0.417 -0.416,-0.833c-0.417,-0.834 -1.25,-2.084 -1.667,-3.334c-2.083,-5 -2.083,-11.25 1.25,-15.833c0.417,-0.833 1.25,-1.25 1.667,-2.083l0.416,-0.417c0.417,-0.417 1.25,-0.833 1.667,-1.25c0.417,0 0.833,-0.417 1.25,-0.417c0.417,-0.416 1.25,-0.416 1.667,-0.833l1.666,0c0.834,0 1.25,-0.417 2.084,-0.417l3.75,0c0.416,0 0.833,0.417 1.666,0.417l0.417,0c0.417,0 0.833,0.417 1.25,0.417c0.417,-0 0.417,0.416 0.417,0.416c0.416,0.417 0.833,0.417 1.25,0.834l0.416,0.416c0.417,0.417 0.834,0.834 0.834,1.25c-0,0.417 0.416,0.417 0.416,0.834c0.417,0.833 0.834,1.666 0.834,2.5c-0,-0 1.25,7.5 -5.834,10.833c0,0 0,0.417 0.417,0.833l1.667,1.667c0.416,0 0.416,0.417 0.833,0.417l0.417,0.416c0.416,0 0.416,0.417 0.833,0.417c0.417,0 0.417,0 0.833,0.417c0.417,-0 0.834,-0 1.25,0.416l2.5,0c4.167,-0.416 7.5,-2.916 9.584,-6.25c1.666,-3.333 2.083,-8.75 -4.167,-14.583c0,0 5.417,-0.833 7.083,-6.25c1.667,-5 -2.083,-10.417 -7.5,-11.25c-0.833,0 -1.666,-0.417 -2.916,-0.417l-2.084,0c-0.416,0 -1.25,0 -1.666,0.417l-0.417,0c-0.417,0 -1.25,0.417 -1.667,0.417l-0.833,-0c-0.833,0.416 -1.667,0.416 -2.5,0.833c0,0 0.417,-4.167 6.667,-5.417c2.916,-0.416 5.833,-2.083 7.5,-4.166c2.083,-2.5 3.333,-6.667 -0,-11.667c-0,0 -0.834,-2.083 -1.25,-5c-0.417,-5 -2.917,-9.583 -7.084,-11.667c-0.416,-0.416 -1.25,-0.416 -1.666,-0.833l-3.75,0c-0.417,0 -0.834,0.417 -1.25,0.417l-0.417,-0c-0.417,-0 -0.833,0.416 -1.25,0.833c-0.417,0.417 -0.833,0.833 -1.25,1.25c0,0 0,0.417 -0.417,0.417c-0.416,0.416 -0.833,1.25 -1.25,2.083c0,0 10.834,2.083 3.75,15c0,0 -1.666,4.583 -12.083,12.917c-6.667,5 -12.083,11.666 -15,19.583c-2.5,6.667 -4.167,15 -1.667,24.167c0,-0 0,0.416 0.417,0.833c0,0.417 0,0.417 0.417,0.833l-0,0.417c-0,0.417 0.416,0.417 0.416,0.833c0,0 0,0.417 0.417,0.417c0,0.417 0.417,0.833 0.417,0.833l0.416,0.417c0,0.417 0.417,0.833 0.417,0.833c0,0.417 0.417,0.417 0.417,0.834c0.416,0.416 0.416,0.833 0.833,0.833c0,0.417 0.417,0.417 0.417,0.833c0.416,0.417 0.416,0.834 0.833,0.834c0.417,0.416 2.083,2.083 2.5,2.5c0.417,0.416 0.833,0.833 1.25,0.833c0.417,0.417 0.417,0.417 0.833,0.833c0.417,0.417 0.834,0.417 1.25,0.834c0.417,0.416 0.834,0.416 1.25,0.833c0.417,0.417 0.834,0.417 1.667,0.833c0.417,0 0.833,0.417 1.25,0.417c0.417,0.417 1.25,0.417 1.667,0.417c0.416,-0 0.833,0.416 1.25,0.416c0.416,0 1.25,0.417 2.083,0.417c0.417,0 0.833,0 1.667,0.417l7.916,-0c0,-0 -11.25,4.166 -10.833,12.916c-0,0 2.5,3.75 -2.083,10.834l0.833,-0c0.417,-0 0.417,0.416 0.833,0.416c0.417,0 0.834,0.417 1.25,0.417l0.417,0c0.417,0 0.833,0.417 0.833,0.417l0.417,-0c0.417,-0 0.833,0.416 1.667,0.416c0.416,0 1.25,0.417 1.666,0.417l2.084,0c1.25,0 2.916,-0.417 4.166,-0.833c0,-0 0.417,-0 0.417,-0.417c0.417,0 1.25,-0.417 1.667,-0.833c0.416,-0 0.416,-0 0.833,-0.417c0.833,-0.417 1.667,-0.833 2.083,-1.25c0,0 0.834,1.25 0,3.333c0,0 11.25,-1.666 15.417,-10.833c0,0 4.167,-11.25 10,-13.333c0,-0 -10.417,20.416 -11.667,38.75c-0.416,3.333 0.417,7.083 1.667,10c0.417,0.833 0.833,1.25 1.25,1.666l0.417,0.417c0.416,0.417 0.833,0.833 1.25,0.833l0.416,0.417c0.417,0.417 1.25,0.417 1.667,0.833l0.417,0c0.833,0.417 1.666,0.417 2.5,0.417l2.5,0c0.416,0 1.25,-0.417 2.083,-0.417c0.417,0 0.417,0 0.833,-0.416c0.834,-0.417 1.667,-0.417 2.5,-0.834c0,0 -0.416,13.334 15.417,14.584l4.583,-0c0.417,-0 0.834,-0 0.834,-0.417c0.416,0 0.833,-0.417 0.833,-0.417c0.417,0 0.417,-0.416 0.833,-0.416c0.417,-0 0.417,-0.417 0.834,-0.417c0.416,0 0.416,-0.417 0.833,-0.417c0.417,0 0.417,-0.416 0.833,-0.416l0.417,-0.417c0,-0.417 0.417,-0.417 0.417,-0.833c-0,-0.417 0.416,-0.417 0.416,-0.834c0,-0.416 0.417,-0.416 0.417,-0.833c0,-0.417 0.417,-0.417 0.417,-0.833c-0,-0.417 0.416,-0.417 0.416,-0.834c0,-0.416 0.417,-0.416 0.417,-0.833c0,-0.417 0.417,-1.25 0.833,-1.667l0,-7.083c-0.416,6.25 -0.833,6.25 -0.833,6.25Zm19.167,-215.417c2.083,-5 6.666,-11.25 17.083,-12.083l0,-9.583c0,-0 -13.333,-0 -15.833,-12.917l-0,-6.25c-0,-20 22.083,-20.417 22.083,-20.417c0,0 22.083,0.417 22.083,20.417l0,6.25c-2.5,12.917 -15.833,12.917 -15.833,12.917l0,9.583c10.417,0.833 15,7.083 17.083,12.083c1.25,17.5 3.75,34.167 6.25,49.167c0,1.25 -0.416,2.5 -0.416,3.333c-1.667,7.5 -7.917,11.667 -15,9.584c-2.084,-0.417 -3.334,-1.667 -5.417,-3.75c0,-0 -6.25,-6.25 -0.417,-14.167l-15.833,-0c5.833,7.917 -0.417,14.167 -0.417,14.167c-2.083,2.083 -3.333,2.916 -5.416,3.75c-7.084,2.083 -13.334,-2.084 -15,-9.584c-0.417,-1.25 -0.417,-2.083 -0.417,-3.333c1.667,-15 4.167,-31.667 5.417,-49.167Zm-8.75,62.5c0.833,1.667 2.083,2.917 3.75,4.584c5,4.166 12.083,5.416 18.333,3.333c4.167,-1.25 7.917,-3.75 9.583,-8.333c1.667,5 5.834,7.5 9.584,8.333c6.25,2.083 13.333,0.833 18.333,-3.333c1.667,-1.25 2.917,-2.917 3.75,-4.584c0.833,5.417 2.083,10.417 2.917,15c-4.167,-2.5 -10.834,-5.833 -17.917,-4.166c0,-0 -15.833,3.333 -17.5,16.25c-1.667,-13.334 -17.5,-16.25 -17.5,-16.25c-6.667,-1.667 -13.333,1.666 -17.917,4.166c2.917,-4.583 3.75,-9.583 4.584,-15Z" style="fill:#0369a1;fill-rule:nonzero;"/><path d="M190.833,364.583c0,0.417 0,0 0,0Z" style="fill-rule:nonzero;"/></g></svg>